<?xml version="1.0" encoding="UTF-8"?>
<svg id="Layer_2" xmlns="http://www.w3.org/2000/svg" version="1.1" viewBox="0 0 116.14 58.97">
  <!-- Generator: Adobe Illustrator 30.2.1, SVG Export Plug-In . SVG Version: 2.1.1 Build 1)  -->
  <defs>
    <style>
      .st0 {
        fill: #ed2024;
      }
    </style>
  </defs>
  <g id="Aj9B1S">
    <g>
      <g>
        <path d="M106.29,53.47c-2.22.21-4.06.11-6.33.11v-7.33s2.7-.19,2.7-.19V11.67s-4.05.02-4.05.02v41.78s-8.3,0-8.3,0V5.28s16.03.02,16.03.02c2.78,0,4.39,2.09,4.76,4.7v9.43c.02,3.67-2.97,6.19-5.83,7.68l5.86.04-.04,21.47c0,2.63-2.23,4.61-4.79,4.84Z"/>
        <path d="M63.92,53.59l.04-7.53c3.28-.45,5.8-2.18,7.04-5.07l-8.24-.03-.02-6.62,8.69-.05c.03-1.12.03-2.18-.08-3.26-.17-1.63-1.48-2.84-3.11-2.86l-4.61-.05v-6.63s7.8-.02,7.8-.02c.02-.98.04-1.89-.04-2.86-.11-1.42-1.51-2.4-2.91-2.42l-5.05-.07v-6.62s8.01-.02,8.01-.02l.04-4.21h8.27s.03,4.21.03,4.21h8.57s.01,6.64.01,6.64l-8.59.02v5.32s7.55.02,7.55.02l.04,6.64-7.59.04v6.12s8.41.03,8.41.03l-.03,6.64-8.34.02c-2.37,8.15-7.2,12.36-15.88,12.62Z"/>
      </g>
      <path class="st0" d="M51.74,53.69H6.85s.02-29.91.02-29.91c0-3.67,2.57-6.55,6.34-6.57l10.15-.04,1.92-5.13H5.03s-.01-6.76-.01-6.76h48.34s.04,6.75.04,6.75h-18.87s-1.82,5.14-1.82,5.14l12.99.04c3.49.28,5.64,2.63,6.03,6.14l.02,30.34ZM41.1,24.47c-.83-.31-1.81-.54-2.77-.54H15.15s0,8.12,0,8.12h28.13c0-2.68.88-6.42-2.18-7.58ZM43.33,42.46c0-2.69-2.7-3.65-4.87-3.65H15.15s0,8.1,0,8.1h28.19s0-4.45,0-4.45Z"/>
    </g>
  </g>
</svg>