<?xml version="1.0" encoding="UTF-8"?>
<svg id="Layer_1" xmlns="http://www.w3.org/2000/svg" version="1.1" viewBox="0 0 116.14 116.14">
  <!-- Generator: Adobe Illustrator 30.2.1, SVG Export Plug-In . SVG Version: 2.1.1 Build 1)  -->
  <defs>
    <style>
      .st0 {
        fill: #d01112;
      }

      .st1 {
        fill: #ce1312;
      }

      .st2 {
        fill: #fdfbfb;
      }

      .st3 {
        fill: #d21010;
      }

      .st4 {
        fill: #d21111;
      }

      .st5 {
        fill: #d21211;
      }

      .st6 {
        fill: #fcfafa;
      }

      .st7 {
        fill: #cc1010;
      }
    </style>
  </defs>
  <g id="WAI9qa">
    <g>
      <path class="st3" d="M58.65,12.62l3.35.06c.63.01,1.27-.14,1.83-.08,3.15.36,3.44-.31,6.69.62.8.23,1.5.06,2.25-.17.51-.16,1.39.26,1.91.19.88-.11,1.53-.13,2.38-.03,2.4.26,4.76.05,7.19.05l11.35.03c.94,0,1.89.06,2.81.16l1.91.22,1.82.15c.47.04,1.11.94,1.22,1.38.39,1.54.48,3.01.49,4.6l.05,7.75-.03,2.55.11,2.53c.06,1.29.22,12.84.15,13.42l-.25,2.17-.02,5.56c0,1.62-.07,3.18.14,4.82.19,1.47-.18,3.03.14,4.42.41,1.81,0,3.48-.02,5.28-.01,1.21.11,2.3-.08,3.54-.38,2.47-.13,4.98-.1,7.48.01,1.14,0,2.2.12,3.3.25,2.43.02,4.8-.07,7.25l-.14,3.68c-.07,1.93.33,6.83-1.18,7.83-1.38.92-3.08.93-4.71.89-3.09-.08-6.1-.36-9.16-.07-.6.06-1.13.09-1.74.11l-3.16.1c-1.48.05-2.91.29-4.39.23l-2.3-.11c-1.5-.07-3-.53-4.47-.22-1.55.33-2.96.17-4.53-.06-1.48-.23-3.03-.18-4.55-.11l-2.01.09-2.69.03c-1.1.01-2.13.13-3.21.22l-2.31.2-5.7.27c-.62.03-1.49-.22-2.02-.43-1.15-.46-2.06-.15-3.19.19-1.78.53-4.36-.7-7.41-.39-1.27.13-2.55.13-3.82,0-2.83-.3-5.75.39-7.13.3l-4.33-.28c-.81-.05-1.62.15-2.38-.04-2.24-.57-3.44-.11-4.27-1.16-.51-.64-.54-1.41-.63-2.19-.13-1.11-.27-2.11-.18-3.22.05-.7-.04-1.42-.04-2.14v-10.52s.1-1.87.1-1.87c.15-2.64-.56-11.74-.32-12.74.23-.94.21-2.25.02-3.2-.41-1.99-.14-3.81-.02-5.81l.15-2.52c.15-2.44.21-4.87-.05-7.29-.06-.56-.44-1.1-.26-1.72.22-.76.04-1.42-.07-2.21-.08-.56.25-1.38.21-1.97-.14-2.01-.12-3.87.01-5.87.29-4.4-.51-4.31-.07-7.42.2-1.43.21-2.95.22-4.44l.05-5.35-.03-3.57c0-.7.52-1.75.98-2.3,2.4-1.37,1.98-.38,4.4-1.31.66-.25,1.46.12,2.16.13,1.08.02,2.2-.27,3.26-.07,1.8.34,3.46.18,5.28-.03,4.43-.51,4.42.21,8.5.18,1.3-.01,2.56-.16,3.83-.44.85-.19,1.57.09,2.38.19,5.04.66,7.58-.46,10.03-.15,1.95.25,3.77.13,5.51-.65ZM60.08,55.04c-.03.28.23.81.47.95,2.24,1.35,4.6,1.32,6.93.42,2.79-1.08,4.86-3.07,5.68-6.05.12-.43.37-.96.62-1.37l4.51-.23c1-.05,2.9-.82,2.84-1.94-.02-.34-.39-.75-.73-.94-3.01-1.66-5.83-.08-6.37-.93-.44-.68-.29-1.68.12-2.34l4.07-.24c1.41-.08,3.09-1.28,2.6-2.31-.12-.26-.54-.56-.89-.72-2.62-1.2-5.14.1-5.92-.52-.39-.32-.45-1.61-.11-1.96.16-.16.55-.28.84-.3l2.4-.13c1.11-.06,2.11-.27,2.9-1.13.2-.22.39-.84.29-1.11-.09-.23-.44-.58-.71-.73-2.58-1.41-5.1.18-5.77-.65-.55-.68.4-2.63-1.33-4.11-.88-.75-2.15-1.18-3.25-.8-2.17.73-.07,3.25-.69,5.04-.13.28-.88.48-1.19.5-1.53.08-2.88.12-4.39.27-.44.04-.97.58-1.04.93-.27,1.48,1.8,2.43,3.53,2.32l2.21-.14c.24-.02.78.14.9.35.24.44.28,1.48,0,1.85-.14.19-.63.38-.9.39l-5.4.38c-.39.03-.95.46-1.08.75-.57,1.24,1.63,2.69,3.26,2.52l3.2-.32c.25-.03.79.09.92.29.3.44.31,1.75-.07,2.25-.16.21-.7.33-1.03.36l-3.51.3c-.84.07-2.93.11-3.17,1.08-.06.25.11.84.28,1.08,1.76,2.44,4.76.63,7.05,1.18-.36,1.61-1.43,2.52-2.62,3.32-2.56,1.72-5.32,1.19-5.46,2.42ZM45.47,78.25c.26,1.49,1.64,2.53,3.13,2.31.58-.08,1.68-.54,2.01-.99l1.29-1.77c.32-.44.66-1.55.63-2.08-.04-.86-.03-1.59,0-2.39l.15-4.51-.17-13.04c-.03-2.56-.08-5.01.34-7.52.25-1.47.13-2.79-1.05-3.96-1.01-1.01-2.52-1.77-4.03-2.04-.78-.14-1.62.15-2.39.22l-9.5.87c-1.16.11-2.32.42-3.44.1,2.62-1.68,4.98-3.34,6.36-6,.39-.74.54-1.34,1.67-1.37l5.05-.13,6.56-.12,1.05-.26c1.38-.34,2.9-.42,3.89-1.48.77-.83,1.3-2.22.18-3.03-.46-.32-1.53-.7-2.11-.76l-2.82-.26c-2.29-.21-4.55.31-6.85.46l-8.39.54-19.2.96c-.63.03-1.22.7-1.42,1.11-.72,1.47,1.62,3.88,4.42,3.63l9.73-.85c.23-.02.7.19.84.36s.05.69-.09.91c-1.44,2.35-3.31,4.35-5.48,6.03-.7.54-1.49.63-2.31.36-1.17-.38-2.3-.08-2.83,1.07-.81,1.75.01,2.93,0,5.62l-.04,6.87-.11,10.53v6.54c0,.88.32,1.83.59,2.69.4,1.26,1.53,2.38,2.86,2.58,1.11.16,2.04-.67,2.56-1.53.61-.99,1.82-.47,4.16-.63l11.01-.78c1.65-.12,3.41-.07,3.73,1.75ZM90.42,43.83c1.71,1.64,2.9,3.5,3.27,5.81.31,1.94-3.12,1.41-4.74,1.38-.32,0-.72.48-.76.75s.12.88.3,1.09c1.6,1.85,3.97,2.26,6.29,1.93,1.81-.26,3.2-.99,4.08-2.71,1.29-2.55-1.76-7.06-3.5-8.93-.35-.37-.86-.71-1.28-1.1,1.29-1.62,2.33-3.15,3.4-4.84l1.3-2.05c.36-.56.22-1.31-.07-1.85-.47-.85-1.16-1.33-1.9-1.8-1.17-.75-2.09-.79-3.41-.63l-5.29.64c-2.96.36-3.59-1.05-4.83-.08-.96.75-.27,2.49-.27,2.95v9.9s-.04,6.97-.04,6.97c0,2.05,1.06,4.67,2.8,4.16s1.73-3.69,1.73-5.18l-.04-13.7c0-.85.15-1.44,1.16-1.55l3.51-.39c.18-.02.59.17.69.3.46.55-2.46,5.38-3.01,6.33-.44.77-.01,1.99.64,2.61ZM82.54,64.22c0-.43.57-.91.86-.93l5.71-.35c.7-.04,1.86.46,1.91,1.23.2,2.77.16,5.44.06,8.22-.02.54-.47,1.38-.98,1.46-1.49.25-2.85.22-4.33.22-.6,0-1.36.52-1.09,1.17.47,1.14,1.51,1.88,2.55,2.46,2.23,1.24,2.37,1.42,5.58,1.08,1.96-.21,2.65-1.49,3.23-2.1.69-.73.81-1.14.86-2.12.07-1.5.22-3.03.11-4.6-.15-2.2-.22-4.41-.02-6.59.11-1.21.33-2.22-.62-3.22-.75-.79-1.75-1.37-2.86-1.74-.78-.26-1.56.08-2.36.13l-7.91.41c-.98.05-.83-2.25-.8-2.81.09-2.26-1.43-4.18-3.73-4.3-.63-.03-1.35.19-1.66.66-.33.51-.47,1.12-.3,1.74.33,1.15.61,3.71.06,4.41-.18.22-.74.36-1.1.38-1.82.1-3.56.2-5.33.39-1.63.18-3.05.27-4.59-.45-.54-.25-1.51,0-1.93.42-.35.34-.81,1.14-.67,1.73.41,1.74.31,3.31.24,5.05l-.18,4.7c-.09,2.23-.27,4.47.84,6.24.63,1,1.87,1.56,2.99,1.11.35-.14.98-.77,1.08-1.15.18-.7.51-1.65.52-2.38l.06-9.96c0-.81,1.13-.72,1.6-.77l5.24-.5c.3-.03.9.14,1.13.29s.42.7.42,1.07l-.02,16.39c0,.91.35,1.83.64,2.68.37.3.93.73,1.33.96.94.53,1.97-.08,2.58-.9.46-.62.84-1.59.84-2.48l.05-17.21Z"/>
      <path class="st0" d="M89.5,106.77c-5.71.12-11.18.29-16.76.09-.88-.03-1.69-.32-2.58-.17-3.34.57-6.64.54-10.01.1-.57-.07-1.16.17-1.73.26-2.68.43-2.44-.43-4.83-.01-1.67.29-3.35-.1-5.02-.41-.82-.15-1.63.01-2.45.17-1.22.23-2.46.23-3.72.2-2.17-.06-4.25-.06-6.43,0s-2.75-.77-4.75-.26c-1.8.46-3.56.53-5.4.2-.71-.13-1.41-.08-2.16-.06-1.64.05-3.22-.47-4.84-.62l-2.04-.2c-.8-.08-2.26-.29-2.51-1.2-.23-.83,1.07-.87,1.6-.73,3.05.81,3.39-.26,4.55.08.36.11.9.23,1.18.15.97-.27,1.76-.1,2.76-.17l1.98-.14c2.12-.15,4.09.4,6.22.05,2.55-.42,4.75.05,7.75-.54,3.43-.67,4.51.87,7.66.16,1.86-.42,3.74,0,5.58.27,3.29.48,2.54-.1,5.09.22,1.78.23,3.26-.7,5.3-.31,5.22.99,3.6-.76,7.31-.11.29-.06.25,0-.07.3.59.22,1.36-.09,2.02-.03,3.82.3,4.74-.4,7.88-.3l9.55.32c.7.02,1.58.27,2.2.12,2.78-.66,1.43.52,6.08-.31.73-.13,1.29-.19,2.1-.18l-.53.54,1.87-.03c.17,0,.51.19.63.28.84.69-1.8,2-3.17,2.13-.48.04-.86-.1-1.26-.24-.91-.34-1.92.24-2.84.25l-6.23.13Z"/>
      <path class="st5" d="M63.87,12.31c-.8,0-1.67-.09-2.54-.03-.96.07-1.82.14-2.68.14-.67-.21-1.39-.31-2.17-.37l-3.37-.26c-.56-.04-1.43.22-1.97.1-2.14-.46-4.07-.4-6.2-.29-.76.04-1.7-.06-2.51-.07-1.54-.02-2.85.23-4.34.55-1.59.34-4.4-.52-6.22-.21-1.18.2-2.29.49-3.49.41-1.4-.1-2.82-.2-4.18.13-1.07.26-2.14.04-3.17.12-1.23.08-2.19.18-3.42-.03-1.5-.26-4.33.56-4.4-.56.37-1.58,3.84-1.65,5.13-1.77l7.19-.64c2.12-.19,4.09.28,6.21.16l5.83-.34,6.01.02c1.82,0,3.49.55,5.38.5l4.34-.13,2.18-.11c.87-.04,1.76-.19,2.64,0,3.44.71,2.93-.26,3.55-.37,2.36-.42,4.8-.07,7.2.24.99.13,2-.39,3.01-.38,3.03.02,6.01-.14,9.02.06l3.69.25c1.17.08,2.09.05,3.25-.24,1.92-.47,3.97-.07,5.94-.12.89-.02,1.59.24,2.45.27l2.24.08c2.35,1.3,4.42-.23,5.22,2.07-.86.19-1.79.47-2.63.33l-2.89-.49c-2.18-.37-7.15.63-9.05.41-1.03-.12-2.15-.5-3.14-.23-1.3.35-2.43.44-3.74.28-1.84-.22-3.66.13-5.51.22-.91.05-1.9-.15-2.77.01-3.57.69-2.89-.65-5.03.24-.83.35-1.7.11-2.57.02-.79-.09-1.61.02-2.47.03Z"/>
      <path class="st1" d="M10.57,99.26c-.01,2.18,1.7,3.05.41,3.86-.74.46-2.12-2.03-2.08-3.85.02-.95-.25-1.7-.42-2.61-.19-1.01-.25-2.19-.29-3.25l-.15-3.7c-.07-1.66-.27-3.35.04-4.97.22-1.16.35-2.13-.05-3.27-.28-.81,0-1.76,0-2.62-.02-2.6-.2-5.12-.02-7.69.22-3.26-.47-4.85.04-8.17s-.56-1.77,0-5.16c.15-.93,0-1.93-.01-2.9-.03-1.81-.03-3.56.04-5.36.05-1.12.07-2.16,0-3.28-.14-2.48-.16-4.91-.06-7.41.06-1.44.02-2.78-.11-4.21-.31-3.48.79-2.35.21-6.34-.25-1.74-.04-3.56.02-5.34l.07-2.08c.03-.98.2-1.82.42-2.82s.11-2.71,1.45-3.16c.15-.05.3.31.38.48.4.82.22,1.4.1,2.25-.14.91-.08,1.99-.02,2.94.14,2.14.05,4.54-.1,6.71-.06.81-.03,1.59.13,2.37-.31,1.1-.14,2.12.1,3.24.22.99,0,2.14,0,3.18l-.07,8.44-.11,1.99.06,5.19-.02,3.38-.06,4.34c-.02,1.19-.26,2.24.19,3.36.86,2.11-.28,4.83.03,6.8.13.82-.03,1.57-.1,2.39-.22,2.71.24,5.41-.02,7.35-.09.69-.51,1.96-.03,2.42.7.66-.02,1.35,0,1.88l.16,6.25c.04,1.48-.07,2.87-.08,4.34l-.03,5.03Z"/>
      <path class="st7" d="M105.64,97.48c.06-1.24.19-2.38.13-3.58l-.08-1.53c0-.07-.09-.34-.15-.35l-.36-.04c-.08-2,.74-2.36.5-4.92-.08-.89-.11-1.57-.04-2.41.24-2.72.14-5.39.12-8.13-.01-1.4.21-2.82.08-4.19-.1-.99-.38-1.86-.17-2.85.56-2.62-.99-3.53-.27-6.63.38-1.64.35-2.91.38-4.59l.08-5.02c.03-1.99.03-3.87-.17-5.85-.06-.6-.14-1.43-.09-2,.36-3.86-.14-7.4-.03-11.56.06-2.2.27-4.27.24-6.45l-.06-4.91-.05-2.02c-.02-.7-.11-1.47-.04-2.17.32-3.38-1.31-4.58-.52-5.15.15-.11.62-.06.77.06,1.16.89,1.59,3.67,1.72,5.03l.26,2.89c.19,2.12.34,4.25.13,6.39-.17,1.78-.2,3.39-.02,5.18.29,2.96.3,5.84-.13,8.76.58,2.96.44,5.84.07,8.75l.2,7.25c.04,1.44.17,2.77-.16,4.19-.47,2.02.78,3.57.12,8.35-.2,1.47-.19,2.77-.08,4.23s.05,3.05.05,4.6c0,1.44.22,2.92-.02,4.35-.18,1.09-.25,2.02-.02,3.12.33,1.56.14,3.17.06,4.77l-.17,3.41c-.06,1.18-.23,2.28-.4,3.47-.15.99-.41,4.96-2.31,4.53-.02-.59.07-1.24.3-1.84.39-.99.07-2.06.13-3.13Z"/>
      <g>
        <g>
          <path class="st6" d="M82.54,64.22l-.05,17.21c0,.9-.38,1.86-.84,2.48-.61.82-1.63,1.43-2.58.9-.4-.23-.96-.66-1.33-.96-.28-.84-.64-1.76-.64-2.68l.02-16.39c0-.38-.19-.92-.42-1.07s-.82-.32-1.13-.29l-5.24.5c-.46.04-1.59-.04-1.6.77l-.06,9.96c0,.73-.34,1.68-.52,2.38-.1.38-.73,1.01-1.08,1.15-1.12.45-2.36-.11-2.99-1.11-1.11-1.77-.93-4.01-.84-6.24l.18-4.7c.07-1.74.17-3.31-.24-5.05-.14-.59.32-1.39.67-1.73.43-.41,1.39-.67,1.93-.42,1.54.71,2.96.62,4.59.45,1.77-.19,3.51-.29,5.33-.39.36-.02.92-.16,1.1-.38.55-.7.27-3.26-.06-4.41-.18-.62-.04-1.23.3-1.74.3-.46,1.03-.69,1.66-.66,2.31.12,3.83,2.04,3.73,4.3-.02.56-.18,2.87.8,2.81l7.91-.41c.8-.04,1.58-.38,2.36-.13,1.11.37,2.11.95,2.86,1.74.94,1,.73,2.01.62,3.22-.2,2.18-.13,4.39.02,6.59.11,1.57-.04,3.1-.11,4.6-.05.98-.16,1.38-.86,2.12-.58.62-1.27,1.89-3.23,2.1-3.21.35-3.35.17-5.58-1.08-1.04-.58-2.08-1.31-2.55-2.46-.27-.65.49-1.17,1.09-1.17,1.49,0,2.84.03,4.33-.22.51-.08.95-.92.98-1.46.1-2.77.14-5.45-.06-8.22-.06-.78-1.21-1.27-1.91-1.23l-5.71.35c-.29.02-.86.5-.86.93Z"/>
          <path class="st6" d="M60.08,55.04c.13-1.23,2.89-.7,5.46-2.42,1.2-.8,2.26-1.71,2.62-3.32-2.29-.55-5.29,1.27-7.05-1.18-.17-.24-.34-.82-.28-1.08.24-.97,2.33-1.01,3.17-1.08l3.51-.3c.33-.03.87-.15,1.03-.36.38-.5.37-1.81.07-2.25-.13-.2-.67-.32-.92-.29l-3.2.32c-1.63.17-3.84-1.29-3.26-2.52.14-.29.7-.73,1.08-.75l5.4-.38c.27-.02.75-.21.9-.39.29-.37.25-1.41,0-1.85-.11-.21-.65-.36-.9-.35l-2.21.14c-1.73.11-3.8-.84-3.53-2.32.06-.35.6-.89,1.04-.93,1.51-.15,2.86-.19,4.39-.27.3-.02,1.05-.22,1.19-.5.62-1.79-1.48-4.31.69-5.04,1.1-.37,2.37.05,3.25.8,1.73,1.48.77,3.42,1.33,4.11.67.83,3.18-.76,5.77.65.26.14.62.5.71.73.1.27-.09.89-.29,1.11-.79.86-1.79,1.07-2.9,1.13l-2.4.13c-.29.02-.68.13-.84.3-.34.35-.29,1.64.11,1.96.78.63,3.3-.68,5.92.52.35.16.76.46.89.72.49,1.04-1.19,2.23-2.6,2.31l-4.07.24c-.41.65-.56,1.66-.12,2.34.54.84,3.36-.73,6.37.93.34.19.71.6.73.94.06,1.12-1.84,1.89-2.84,1.94l-4.51.23c-.25.42-.5.94-.62,1.37-.82,2.98-2.89,4.97-5.68,6.05-2.33.9-4.68.93-6.93-.42-.23-.14-.5-.67-.47-.95Z"/>
          <path class="st2" d="M90.42,43.83c-.65-.62-1.08-1.84-.64-2.61.55-.95,3.47-5.78,3.01-6.33-.11-.13-.52-.32-.69-.3l-3.51.39c-1,.11-1.16.69-1.16,1.55l.04,13.7c0,1.49,0,4.67-1.73,5.18s-2.8-2.11-2.8-4.16l.03-6.97v-9.9c.01-.45-.68-2.2.29-2.95,1.24-.97,1.87.44,4.83.08l5.29-.64c1.31-.16,2.24-.11,3.41.63.74.47,1.43.95,1.9,1.8.29.53.43,1.29.07,1.85l-1.3,2.05c-1.07,1.69-2.11,3.22-3.4,4.84.42.38.93.72,1.28,1.1,1.75,1.87,4.8,6.38,3.5,8.93-.87,1.72-2.26,2.45-4.08,2.71-2.32.33-4.69-.08-6.29-1.93-.18-.21-.35-.83-.3-1.09s.44-.75.76-.75c1.62.03,5.05.56,4.74-1.38-.37-2.31-1.56-4.17-3.27-5.81Z"/>
        </g>
        <g>
          <path class="st2" d="M45.47,78.25c-.33-1.83-2.08-1.87-3.73-1.75l-11.01.78c-2.34.17-3.55-.36-4.16.63-.52.85-1.45,1.69-2.56,1.53-1.33-.19-2.46-1.31-2.86-2.58-.27-.86-.59-1.81-.59-2.69v-6.54s.11-10.53.11-10.53l.04-6.87c.01-2.69-.81-3.87,0-5.62.53-1.15,1.66-1.45,2.83-1.07.82.27,1.61.18,2.31-.36,2.17-1.68,4.04-3.68,5.48-6.03.14-.22.22-.74.09-.91s-.6-.38-.84-.36l-9.73.85c-2.8.25-5.14-2.16-4.42-3.63.2-.41.79-1.08,1.42-1.11l19.2-.96,8.39-.54c2.3-.15,4.55-.68,6.85-.46l2.82.26c.59.05,1.66.43,2.11.76,1.12.82.6,2.2-.18,3.03-.99,1.06-2.51,1.14-3.89,1.48l-1.05.26-6.56.12-5.05.13c-1.13.03-1.29.62-1.67,1.37-1.39,2.65-3.75,4.32-6.36,6,1.12.32,2.28,0,3.44-.1l9.5-.87c.77-.07,1.6-.36,2.39-.22,1.51.26,3.01,1.03,4.03,2.04,1.18,1.17,1.3,2.49,1.05,3.96-.43,2.5-.38,4.96-.34,7.52l.17,13.04-.15,4.51c-.03.8-.03,1.53,0,2.39.02.54-.32,1.65-.63,2.08l-1.29,1.77c-.33.45-1.43.91-2.01.99-1.5.21-2.87-.82-3.13-2.31ZM27,59.97l-.04,10.35c0,.81.55,1.51,1.41,1.55,1.73.08,3.43,0,5.18-.15l8.21-.69c2.33-.2,3.61.69,3.84-.77.11-.72.26-1.56.26-2.33l-.04-14.16-.1-4.51c-.03-1.36-1.14-2.48-2.64-2.42-4.83.2-9.54.69-14.38,1.18-.6.06-1.7.33-1.7,1.12v9.52c.53-.31.92-.6,1.3-.95.93-.85,2.08-.8,3.28-.95l5.99-.75c2.09-.26,4.27-.18,6.12.85.39.22.88.98.92,1.38.24,2.13-3.6,3.42-5.33,3.25l-6.99.75c-2.16.23-3.76-.51-5.29-2.28Z"/>
          <path class="st4" d="M27,59.97c1.53,1.77,3.13,2.51,5.29,2.28l6.99-.75c1.73.17,5.57-1.12,5.33-3.25-.05-.41-.53-1.16-.92-1.38-1.85-1.03-4.04-1.11-6.12-.85l-5.99.75c-1.2.15-2.35.1-3.28.95-.38.35-.77.64-1.29.95v-9.52c-.01-.79,1.09-1.06,1.69-1.12,4.85-.48,9.55-.98,14.38-1.18,1.5-.06,2.61,1.07,2.64,2.42l.1,4.51.04,14.16c0,.77-.15,1.61-.26,2.33-.23,1.46-1.51.57-3.84.77l-8.21.69c-1.75.15-3.45.23-5.18.15-.86-.04-1.42-.74-1.41-1.55l.04-10.35Z"/>
        </g>
      </g>
    </g>
  </g>
</svg>