<?xml version="1.0" encoding="UTF-8"?>
<svg id="Layer_1" xmlns="http://www.w3.org/2000/svg" version="1.1" viewBox="0 0 116.14 116.14">
  <!-- Generator: Adobe Illustrator 30.2.1, SVG Export Plug-In . SVG Version: 2.1.1 Build 1)  -->
  <defs>
    <style>
      .st0 {
        fill: #ec2527;
      }
    </style>
  </defs>
  <path class="st0" d="M19.91,4.69c25.42-.08,50.86-.02,76.29-.03,5.33,0,9.95,4.21,10.46,9.53.07,6.93.03,13.87,0,20.8-.38,2.49-3.71,3.43-5.33,1.43-7.23-6.67-16.43-8.82-25.99-9.51-12.33-.29-24.68.1-37,.08-.04,6.17-.19,12.45.08,18.6,10.01-.24,20.47-.69,30.45-.8,7.64.17,15.07,2.53,19.05,9.52.48,1.57,1.79,4.04.19,5.29-4.45.79-9.08.04-13.6.48-11.04.62-23.05,3.5-31.23,11.4-7.59,7.06-10.4,17.92-8.46,27.96.68,3.03,1.49,5.85,1.32,8.99-.3,1.74-1.23,2.76-3,3.04-4.73.06-9.45.02-14.18-.02-5.36-.49-9.42-5.25-9.52-10.58,0-28.57.02-57.13,0-85.7.32-5.78,4.65-10.25,10.47-10.47h0Z"/>
  <path class="st0" d="M89.45,77.52c.58,5.33.49,11.47-.87,16.74-1.69,6.01-6.97,10.18-13.11,10.88-4.71,1-9.85.7-14.22-1.36-5.6-2.66-6.37-10.06-4.85-15.38,1.27-5.69,6.46-8.96,11.7-10.54,7.06-1.66,14.25-2.11,21.34-.36h0Z"/>
</svg>